<svg width="24" height="24" viewBox="0 0 24 24" fill="none" xmlns="http://www.w3.org/2000/svg">
<rect width="24" height="24" fill="#E5E5E5"/>
<g id="Wigs - Ecommerce Website UI" clip-path="url(#clip0_0_1)">
<rect width="1600" height="1200" transform="translate(-369 -154)" fill="#E2E7ED"/>
<circle id="Ellipse 133" cx="432" cy="439" r="437" fill="#9F7FE8"/>
<circle id="Ellipse 139" cx="-162.5" cy="96.5" r="177.5" fill="#9872FF"/>
<g id="Rectangle 17" filter="url(#filter0_b_0_1)">
<rect x="-369" y="-155" width="1600" height="1200" fill="#E5E9EF" fill-opacity="0.8"/>
</g>
<g id="Wigs - Ecommerce Website UI_2" filter="url(#filter1_b_0_1)">
<rect x="-289" y="-49" width="1440" height="990" rx="20" fill="white" fill-opacity="0.8"/>
<g id="Group 55">
<g id="search">
<path id="Union" fill-rule="evenodd" clip-rule="evenodd" d="M17.8723 16.8116C19.1996 15.2436 20 13.2153 20 11C20 6.02944 15.9706 2 11 2C6.02944 2 2 6.02944 2 11C2 15.9706 6.02944 20 11 20C13.2153 20 15.2436 19.1996 16.8116 17.8723L19.4697 20.5303C19.7626 20.8232 20.2374 20.8232 20.5303 20.5303C20.8232 20.2374 20.8232 19.7626 20.5303 19.4697L17.8723 16.8116ZM18.5 11C18.5 15.1421 15.1421 18.5 11 18.5C6.85786 18.5 3.5 15.1421 3.5 11C3.5 6.85786 6.85786 3.5 11 3.5C15.1421 3.5 18.5 6.85786 18.5 11Z" fill="black"/>
</g>
</g>
</g>
</g>
<defs>
<filter id="filter0_b_0_1" x="-603" y="-389" width="2068" height="1668" filterUnits="userSpaceOnUse" color-interpolation-filters="sRGB">
<feFlood flood-opacity="0" result="BackgroundImageFix"/>
<feGaussianBlur in="BackgroundImageFix" stdDeviation="117"/>
<feComposite in2="SourceAlpha" operator="in" result="effect1_backgroundBlur_0_1"/>
<feBlend mode="normal" in="SourceGraphic" in2="effect1_backgroundBlur_0_1" result="shape"/>
</filter>
<filter id="filter1_b_0_1" x="-373" y="-133" width="1608" height="1158" filterUnits="userSpaceOnUse" color-interpolation-filters="sRGB">
<feFlood flood-opacity="0" result="BackgroundImageFix"/>
<feGaussianBlur in="BackgroundImageFix" stdDeviation="42"/>
<feComposite in2="SourceAlpha" operator="in" result="effect1_backgroundBlur_0_1"/>
<feBlend mode="normal" in="SourceGraphic" in2="effect1_backgroundBlur_0_1" result="shape"/>
</filter>
<clipPath id="clip0_0_1">
<rect width="1600" height="1200" fill="white" transform="translate(-369 -154)"/>
</clipPath>
</defs>
</svg>
